<?xml version="1.0" encoding="UTF-8" standalone="no"?>
<!DOCTYPE svg PUBLIC "-//W3C//DTD SVG 1.1//EN"
 "http://www.w3.org/Graphics/SVG/1.1/DTD/svg11.dtd">
<!-- Generated by graphviz version 2.40.1 (20161225.0304)
 -->
<!-- Title: %3 Pages: 1 -->
<svg width="1275pt" height="692pt"
 viewBox="0.00 0.00 1274.84 692.00" xmlns="http://www.w3.org/2000/svg" xmlns:xlink="http://www.w3.org/1999/xlink">
<g id="graph0" class="graph" transform="scale(1 1) rotate(0) translate(4 688)">
<title>%3</title>
<polygon fill="#ffffff" stroke="transparent" points="-4,4 -4,-688 1270.8393,-688 1270.8393,4 -4,4"/>
<!-- [root] data.google_client_config.default -->
<g id="node1" class="node">
<title>[root] data.google_client_config.default</title>
<polygon fill="none" stroke="#000000" points="718,-180 464,-180 464,-144 718,-144 718,-180"/>
<text text-anchor="middle" x="591" y="-158.3" font-family="Times,serif" font-size="14.00" fill="#000000">data.google_client_config.default</text>
</g>
<!-- [root] provider.google -->
<g id="node12" class="node">
<title>[root] provider.google</title>
<polygon fill="none" stroke="#000000" points="545,-108 427.1955,-90 545,-72 662.8045,-90 545,-108"/>
<text text-anchor="middle" x="545" y="-86.3" font-family="Times,serif" font-size="14.00" fill="#000000">provider.google</text>
</g>
<!-- [root] data.google_client_config.default&#45;&gt;[root] provider.google -->
<g id="edge1" class="edge">
<title>[root] data.google_client_config.default&#45;&gt;[root] provider.google</title>
<path fill="none" stroke="#000000" d="M579.3923,-143.8314C573.8255,-135.1181 567.0675,-124.5404 561.0205,-115.0756"/>
<polygon fill="#000000" stroke="#000000" points="563.8363,-112.9819 555.5029,-106.4393 557.9374,-116.7506 563.8363,-112.9819"/>
</g>
<!-- [root] google_container_cluster.gke&#45;cluster -->
<g id="node2" class="node">
<title>[root] google_container_cluster.gke&#45;cluster</title>
<polygon fill="none" stroke="#000000" points="445.5,-180 164.5,-180 164.5,-144 445.5,-144 445.5,-180"/>
<text text-anchor="middle" x="305" y="-158.3" font-family="Times,serif" font-size="14.00" fill="#000000">google_container_cluster.gke&#45;cluster</text>
</g>
<!-- [root] google_container_cluster.gke&#45;cluster&#45;&gt;[root] provider.google -->
<g id="edge2" class="edge">
<title>[root] google_container_cluster.gke&#45;cluster&#45;&gt;[root] provider.google</title>
<path fill="none" stroke="#000000" d="M365.2523,-143.9243C405.403,-131.8791 457.5347,-116.2396 495.3079,-104.9076"/>
<polygon fill="#000000" stroke="#000000" points="496.499,-108.2045 505.0715,-101.9785 494.4875,-101.4997 496.499,-108.2045"/>
</g>
<!-- [root] var.app_name -->
<g id="node14" class="node">
<title>[root] var.app_name</title>
<polygon fill="none" stroke="#000000" points="357,-108 247,-108 247,-72 363,-72 363,-102 357,-108"/>
<polyline fill="none" stroke="#000000" points="357,-108 357,-102 "/>
<polyline fill="none" stroke="#000000" points="363,-102 357,-102 "/>
<text text-anchor="middle" x="305" y="-86.3" font-family="Times,serif" font-size="14.00" fill="#000000">var.app_name</text>
</g>
<!-- [root] google_container_cluster.gke&#45;cluster&#45;&gt;[root] var.app_name -->
<g id="edge3" class="edge">
<title>[root] google_container_cluster.gke&#45;cluster&#45;&gt;[root] var.app_name</title>
<path fill="none" stroke="#000000" d="M305,-143.8314C305,-136.131 305,-126.9743 305,-118.4166"/>
<polygon fill="#000000" stroke="#000000" points="308.5001,-118.4132 305,-108.4133 301.5001,-118.4133 308.5001,-118.4132"/>
</g>
<!-- [root] kubernetes_deployment.weather&#45;backend&#45;deployment -->
<g id="node3" class="node">
<title>[root] kubernetes_deployment.weather&#45;backend&#45;deployment</title>
<polygon fill="none" stroke="#000000" points="1155,-396 749,-396 749,-360 1155,-360 1155,-396"/>
<text text-anchor="middle" x="952" y="-374.3" font-family="Times,serif" font-size="14.00" fill="#000000">kubernetes_deployment.weather&#45;backend&#45;deployment</text>
</g>
<!-- [root] kubernetes_namespace.weatherns -->
<g id="node5" class="node">
<title>[root] kubernetes_namespace.weatherns</title>
<polygon fill="none" stroke="#000000" points="897.5,-324 632.5,-324 632.5,-288 897.5,-288 897.5,-324"/>
<text text-anchor="middle" x="765" y="-302.3" font-family="Times,serif" font-size="14.00" fill="#000000">kubernetes_namespace.weatherns</text>
</g>
<!-- [root] kubernetes_deployment.weather&#45;backend&#45;deployment&#45;&gt;[root] kubernetes_namespace.weatherns -->
<g id="edge4" class="edge">
<title>[root] kubernetes_deployment.weather&#45;backend&#45;deployment&#45;&gt;[root] kubernetes_namespace.weatherns</title>
<path fill="none" stroke="#000000" d="M904.812,-359.8314C879.4684,-350.0734 848.0515,-337.977 821.4226,-327.7242"/>
<polygon fill="#000000" stroke="#000000" points="822.4385,-324.3649 811.8487,-324.038 819.9232,-330.8974 822.4385,-324.3649"/>
</g>
<!-- [root] var.backend_image_name -->
<g id="node15" class="node">
<title>[root] var.backend_image_name</title>
<polygon fill="none" stroke="#000000" points="1229.5,-324 1034.5,-324 1034.5,-288 1235.5,-288 1235.5,-318 1229.5,-324"/>
<polyline fill="none" stroke="#000000" points="1229.5,-324 1229.5,-318 "/>
<polyline fill="none" stroke="#000000" points="1235.5,-318 1229.5,-318 "/>
<text text-anchor="middle" x="1135" y="-302.3" font-family="Times,serif" font-size="14.00" fill="#000000">var.backend_image_name</text>
</g>
<!-- [root] kubernetes_deployment.weather&#45;backend&#45;deployment&#45;&gt;[root] var.backend_image_name -->
<g id="edge5" class="edge">
<title>[root] kubernetes_deployment.weather&#45;backend&#45;deployment&#45;&gt;[root] var.backend_image_name</title>
<path fill="none" stroke="#000000" d="M998.1786,-359.8314C1022.9801,-350.0734 1053.725,-337.977 1079.7843,-327.7242"/>
<polygon fill="#000000" stroke="#000000" points="1081.1292,-330.9563 1089.1534,-324.038 1078.5663,-324.4423 1081.1292,-330.9563"/>
</g>
<!-- [root] var.build_id -->
<g id="node16" class="node">
<title>[root] var.build_id</title>
<polygon fill="none" stroke="#000000" points="1010,-324 916,-324 916,-288 1016,-288 1016,-318 1010,-324"/>
<polyline fill="none" stroke="#000000" points="1010,-324 1010,-318 "/>
<polyline fill="none" stroke="#000000" points="1016,-318 1010,-318 "/>
<text text-anchor="middle" x="966" y="-302.3" font-family="Times,serif" font-size="14.00" fill="#000000">var.build_id</text>
</g>
<!-- [root] kubernetes_deployment.weather&#45;backend&#45;deployment&#45;&gt;[root] var.build_id -->
<g id="edge6" class="edge">
<title>[root] kubernetes_deployment.weather&#45;backend&#45;deployment&#45;&gt;[root] var.build_id</title>
<path fill="none" stroke="#000000" d="M955.5328,-359.8314C957.0301,-352.131 958.8105,-342.9743 960.4745,-334.4166"/>
<polygon fill="#000000" stroke="#000000" points="963.9465,-334.8975 962.4196,-324.4133 957.0752,-333.5614 963.9465,-334.8975"/>
</g>
<!-- [root] var.container_registry -->
<g id="node17" class="node">
<title>[root] var.container_registry</title>
<polygon fill="none" stroke="#000000" points="608,-324 438,-324 438,-288 614,-288 614,-318 608,-324"/>
<polyline fill="none" stroke="#000000" points="608,-324 608,-318 "/>
<polyline fill="none" stroke="#000000" points="614,-318 608,-318 "/>
<text text-anchor="middle" x="526" y="-302.3" font-family="Times,serif" font-size="14.00" fill="#000000">var.container_registry</text>
</g>
<!-- [root] kubernetes_deployment.weather&#45;backend&#45;deployment&#45;&gt;[root] var.container_registry -->
<g id="edge7" class="edge">
<title>[root] kubernetes_deployment.weather&#45;backend&#45;deployment&#45;&gt;[root] var.container_registry</title>
<path fill="none" stroke="#000000" d="M839.1997,-359.9569C775.8949,-349.6986 695.4957,-336.4501 624,-324 623.8988,-323.9824 623.7976,-323.9647 623.6963,-323.9471"/>
<polygon fill="#000000" stroke="#000000" points="624.5899,-320.5506 614.1351,-322.2675 623.3787,-327.445 624.5899,-320.5506"/>
</g>
<!-- [root] kubernetes_deployment.weather&#45;frontend&#45;deployment -->
<g id="node4" class="node">
<title>[root] kubernetes_deployment.weather&#45;frontend&#45;deployment</title>
<polygon fill="none" stroke="#000000" points="729.5,-396 322.5,-396 322.5,-360 729.5,-360 729.5,-396"/>
<text text-anchor="middle" x="526" y="-374.3" font-family="Times,serif" font-size="14.00" fill="#000000">kubernetes_deployment.weather&#45;frontend&#45;deployment</text>
</g>
<!-- [root] kubernetes_deployment.weather&#45;frontend&#45;deployment&#45;&gt;[root] kubernetes_namespace.weatherns -->
<g id="edge8" class="edge">
<title>[root] kubernetes_deployment.weather&#45;frontend&#45;deployment&#45;&gt;[root] kubernetes_namespace.weatherns</title>
<path fill="none" stroke="#000000" d="M586.0013,-359.9243C619.2422,-349.9103 660.7295,-337.412 695.3912,-326.97"/>
<polygon fill="#000000" stroke="#000000" points="696.4087,-330.3189 704.974,-324.0831 694.3895,-323.6165 696.4087,-330.3189"/>
</g>
<!-- [root] kubernetes_deployment.weather&#45;frontend&#45;deployment&#45;&gt;[root] var.build_id -->
<g id="edge9" class="edge">
<title>[root] kubernetes_deployment.weather&#45;frontend&#45;deployment&#45;&gt;[root] var.build_id</title>
<path fill="none" stroke="#000000" d="M693.4536,-359.976C757.4275,-351.6721 831.0722,-340.4014 905.8507,-324.0834"/>
<polygon fill="#000000" stroke="#000000" points="906.9206,-327.4314 915.9289,-321.8547 905.4091,-320.5965 906.9206,-327.4314"/>
</g>
<!-- [root] kubernetes_deployment.weather&#45;frontend&#45;deployment&#45;&gt;[root] var.container_registry -->
<g id="edge10" class="edge">
<title>[root] kubernetes_deployment.weather&#45;frontend&#45;deployment&#45;&gt;[root] var.container_registry</title>
<path fill="none" stroke="#000000" d="M526,-359.8314C526,-352.131 526,-342.9743 526,-334.4166"/>
<polygon fill="#000000" stroke="#000000" points="529.5001,-334.4132 526,-324.4133 522.5001,-334.4133 529.5001,-334.4132"/>
</g>
<!-- [root] var.frontend_image_name -->
<g id="node18" class="node">
<title>[root] var.frontend_image_name</title>
<polygon fill="none" stroke="#000000" points="414,-324 218,-324 218,-288 420,-288 420,-318 414,-324"/>
<polyline fill="none" stroke="#000000" points="414,-324 414,-318 "/>
<polyline fill="none" stroke="#000000" points="420,-318 414,-318 "/>
<text text-anchor="middle" x="319" y="-302.3" font-family="Times,serif" font-size="14.00" fill="#000000">var.frontend_image_name</text>
</g>
<!-- [root] kubernetes_deployment.weather&#45;frontend&#45;deployment&#45;&gt;[root] var.frontend_image_name -->
<g id="edge11" class="edge">
<title>[root] kubernetes_deployment.weather&#45;frontend&#45;deployment&#45;&gt;[root] var.frontend_image_name</title>
<path fill="none" stroke="#000000" d="M474.0323,-359.9243C445.6112,-350.0387 410.2298,-337.7321 380.4464,-327.3726"/>
<polygon fill="#000000" stroke="#000000" points="381.5839,-324.0627 370.989,-324.0831 379.2842,-330.6742 381.5839,-324.0627"/>
</g>
<!-- [root] provider.kubernetes -->
<g id="node13" class="node">
<title>[root] provider.kubernetes</title>
<polygon fill="none" stroke="#000000" points="421,-252 273.0314,-234 421,-216 568.9686,-234 421,-252"/>
<text text-anchor="middle" x="421" y="-230.3" font-family="Times,serif" font-size="14.00" fill="#000000">provider.kubernetes</text>
</g>
<!-- [root] kubernetes_namespace.weatherns&#45;&gt;[root] provider.kubernetes -->
<g id="edge12" class="edge">
<title>[root] kubernetes_namespace.weatherns&#45;&gt;[root] provider.kubernetes</title>
<path fill="none" stroke="#000000" d="M678.6383,-287.9243C618.5891,-275.3559 539.843,-258.8741 485.2895,-247.456"/>
<polygon fill="#000000" stroke="#000000" points="485.8997,-244.0079 475.3947,-245.3849 484.4656,-250.8594 485.8997,-244.0079"/>
</g>
<!-- [root] kubernetes_service.weather&#45;backend&#45;service -->
<g id="node6" class="node">
<title>[root] kubernetes_service.weather&#45;backend&#45;service</title>
<polygon fill="none" stroke="#000000" points="1122.5,-468 781.5,-468 781.5,-432 1122.5,-432 1122.5,-468"/>
<text text-anchor="middle" x="952" y="-446.3" font-family="Times,serif" font-size="14.00" fill="#000000">kubernetes_service.weather&#45;backend&#45;service</text>
</g>
<!-- [root] kubernetes_service.weather&#45;backend&#45;service&#45;&gt;[root] kubernetes_deployment.weather&#45;backend&#45;deployment -->
<g id="edge13" class="edge">
<title>[root] kubernetes_service.weather&#45;backend&#45;service&#45;&gt;[root] kubernetes_deployment.weather&#45;backend&#45;deployment</title>
<path fill="none" stroke="#000000" d="M952,-431.8314C952,-424.131 952,-414.9743 952,-406.4166"/>
<polygon fill="#000000" stroke="#000000" points="955.5001,-406.4132 952,-396.4133 948.5001,-406.4133 955.5001,-406.4132"/>
</g>
<!-- [root] kubernetes_service.weather&#45;frontend&#45;service -->
<g id="node7" class="node">
<title>[root] kubernetes_service.weather&#45;frontend&#45;service</title>
<polygon fill="none" stroke="#000000" points="696,-468 354,-468 354,-432 696,-432 696,-468"/>
<text text-anchor="middle" x="525" y="-446.3" font-family="Times,serif" font-size="14.00" fill="#000000">kubernetes_service.weather&#45;frontend&#45;service</text>
</g>
<!-- [root] kubernetes_service.weather&#45;frontend&#45;service&#45;&gt;[root] kubernetes_deployment.weather&#45;frontend&#45;deployment -->
<g id="edge14" class="edge">
<title>[root] kubernetes_service.weather&#45;frontend&#45;service&#45;&gt;[root] kubernetes_deployment.weather&#45;frontend&#45;deployment</title>
<path fill="none" stroke="#000000" d="M525.2523,-431.8314C525.3593,-424.131 525.4865,-414.9743 525.6053,-406.4166"/>
<polygon fill="#000000" stroke="#000000" points="529.1049,-406.4609 525.7443,-396.4133 522.1056,-406.3637 529.1049,-406.4609"/>
</g>
<!-- [root] output.cluster&#45;location -->
<g id="node8" class="node">
<title>[root] output.cluster&#45;location</title>
<polygon fill="none" stroke="#000000" points="318,-468 144,-468 144,-432 324,-432 324,-462 318,-468"/>
<polyline fill="none" stroke="#000000" points="318,-468 318,-462 "/>
<polyline fill="none" stroke="#000000" points="324,-462 318,-462 "/>
<text text-anchor="middle" x="234" y="-446.3" font-family="Times,serif" font-size="14.00" fill="#000000">output.cluster&#45;location</text>
</g>
<!-- [root] output.cluster&#45;location&#45;&gt;[root] google_container_cluster.gke&#45;cluster -->
<g id="edge20" class="edge">
<title>[root] output.cluster&#45;location&#45;&gt;[root] google_container_cluster.gke&#45;cluster</title>
<path fill="none" stroke="#000000" d="M225.6175,-431.5359C212.9395,-400.9454 192.0714,-338.1517 209,-288 222.4918,-248.0299 254.2841,-210.7199 277.6007,-187.2336"/>
<polygon fill="#000000" stroke="#000000" points="280.1681,-189.6176 284.8393,-180.1081 275.2574,-184.629 280.1681,-189.6176"/>
</g>
<!-- [root] output.cluster&#45;name -->
<g id="node9" class="node">
<title>[root] output.cluster&#45;name</title>
<polygon fill="none" stroke="#000000" points="156,-396 0,-396 0,-360 162,-360 162,-390 156,-396"/>
<polyline fill="none" stroke="#000000" points="156,-396 156,-390 "/>
<polyline fill="none" stroke="#000000" points="162,-390 156,-390 "/>
<text text-anchor="middle" x="81" y="-374.3" font-family="Times,serif" font-size="14.00" fill="#000000">output.cluster&#45;name</text>
</g>
<!-- [root] output.cluster&#45;name&#45;&gt;[root] google_container_cluster.gke&#45;cluster -->
<g id="edge21" class="edge">
<title>[root] output.cluster&#45;name&#45;&gt;[root] google_container_cluster.gke&#45;cluster</title>
<path fill="none" stroke="#000000" d="M87.1961,-359.8994C99.3102,-326.993 129.1176,-256.9891 176,-216 191.6292,-202.3354 211.2096,-191.7747 230.3581,-183.7687"/>
<polygon fill="#000000" stroke="#000000" points="231.7123,-186.9968 239.7043,-180.0414 229.1192,-180.4948 231.7123,-186.9968"/>
</g>
<!-- [root] output.lb_ip -->
<g id="node10" class="node">
<title>[root] output.lb_ip</title>
<polygon fill="none" stroke="#000000" points="567.5,-540 470.5,-540 470.5,-504 573.5,-504 573.5,-534 567.5,-540"/>
<polyline fill="none" stroke="#000000" points="567.5,-540 567.5,-534 "/>
<polyline fill="none" stroke="#000000" points="573.5,-534 567.5,-534 "/>
<text text-anchor="middle" x="522" y="-518.3" font-family="Times,serif" font-size="14.00" fill="#000000">output.lb_ip</text>
</g>
<!-- [root] output.lb_ip&#45;&gt;[root] kubernetes_service.weather&#45;frontend&#45;service -->
<g id="edge22" class="edge">
<title>[root] output.lb_ip&#45;&gt;[root] kubernetes_service.weather&#45;frontend&#45;service</title>
<path fill="none" stroke="#000000" d="M522.757,-503.8314C523.0779,-496.131 523.4594,-486.9743 523.816,-478.4166"/>
<polygon fill="#000000" stroke="#000000" points="527.3133,-478.5503 524.2328,-468.4133 520.3194,-478.2589 527.3133,-478.5503"/>
</g>
<!-- [root] output.lb_status -->
<g id="node11" class="node">
<title>[root] output.lb_status</title>
<polygon fill="none" stroke="#000000" points="446,-540 318,-540 318,-504 452,-504 452,-534 446,-540"/>
<polyline fill="none" stroke="#000000" points="446,-540 446,-534 "/>
<polyline fill="none" stroke="#000000" points="452,-534 446,-534 "/>
<text text-anchor="middle" x="385" y="-518.3" font-family="Times,serif" font-size="14.00" fill="#000000">output.lb_status</text>
</g>
<!-- [root] output.lb_status&#45;&gt;[root] kubernetes_service.weather&#45;frontend&#45;service -->
<g id="edge23" class="edge">
<title>[root] output.lb_status&#45;&gt;[root] kubernetes_service.weather&#45;frontend&#45;service</title>
<path fill="none" stroke="#000000" d="M420.3279,-503.8314C438.6493,-494.4089 461.2102,-482.8062 480.6895,-472.7883"/>
<polygon fill="#000000" stroke="#000000" points="482.3912,-475.8489 489.6834,-468.1628 479.1898,-469.6239 482.3912,-475.8489"/>
</g>
<!-- [root] var.gcp_region_1 -->
<g id="node19" class="node">
<title>[root] var.gcp_region_1</title>
<polygon fill="none" stroke="#000000" points="457.5,-36 324.5,-36 324.5,0 463.5,0 463.5,-30 457.5,-36"/>
<polyline fill="none" stroke="#000000" points="457.5,-36 457.5,-30 "/>
<polyline fill="none" stroke="#000000" points="463.5,-30 457.5,-30 "/>
<text text-anchor="middle" x="394" y="-14.3" font-family="Times,serif" font-size="14.00" fill="#000000">var.gcp_region_1</text>
</g>
<!-- [root] provider.google&#45;&gt;[root] var.gcp_region_1 -->
<g id="edge26" class="edge">
<title>[root] provider.google&#45;&gt;[root] var.gcp_region_1</title>
<path fill="none" stroke="#000000" d="M516.2426,-76.2879C494.9975,-66.1577 465.6114,-52.1458 440.9756,-40.399"/>
<polygon fill="#000000" stroke="#000000" points="442.326,-37.1654 431.7932,-36.0206 439.3132,-43.4839 442.326,-37.1654"/>
</g>
<!-- [root] var.gcp_zone_1 -->
<g id="node20" class="node">
<title>[root] var.gcp_zone_1</title>
<polygon fill="none" stroke="#000000" points="602,-36 482,-36 482,0 608,0 608,-30 602,-36"/>
<polyline fill="none" stroke="#000000" points="602,-36 602,-30 "/>
<polyline fill="none" stroke="#000000" points="608,-30 602,-30 "/>
<text text-anchor="middle" x="545" y="-14.3" font-family="Times,serif" font-size="14.00" fill="#000000">var.gcp_zone_1</text>
</g>
<!-- [root] provider.google&#45;&gt;[root] var.gcp_zone_1 -->
<g id="edge27" class="edge">
<title>[root] provider.google&#45;&gt;[root] var.gcp_zone_1</title>
<path fill="none" stroke="#000000" d="M545,-71.8314C545,-64.131 545,-54.9743 545,-46.4166"/>
<polygon fill="#000000" stroke="#000000" points="548.5001,-46.4132 545,-36.4133 541.5001,-46.4133 548.5001,-46.4132"/>
</g>
<!-- [root] var.project_id -->
<g id="node21" class="node">
<title>[root] var.project_id</title>
<polygon fill="none" stroke="#000000" points="735.5,-36 626.5,-36 626.5,0 741.5,0 741.5,-30 735.5,-36"/>
<polyline fill="none" stroke="#000000" points="735.5,-36 735.5,-30 "/>
<polyline fill="none" stroke="#000000" points="741.5,-30 735.5,-30 "/>
<text text-anchor="middle" x="684" y="-14.3" font-family="Times,serif" font-size="14.00" fill="#000000">var.project_id</text>
</g>
<!-- [root] provider.google&#45;&gt;[root] var.project_id -->
<g id="edge28" class="edge">
<title>[root] provider.google&#45;&gt;[root] var.project_id</title>
<path fill="none" stroke="#000000" d="M572.1306,-75.9468C591.4348,-65.9474 617.7912,-52.2952 640.0727,-40.7537"/>
<polygon fill="#000000" stroke="#000000" points="641.7515,-43.8258 649.0212,-36.1185 638.5319,-37.6102 641.7515,-43.8258"/>
</g>
<!-- [root] provider.kubernetes&#45;&gt;[root] data.google_client_config.default -->
<g id="edge31" class="edge">
<title>[root] provider.kubernetes&#45;&gt;[root] data.google_client_config.default</title>
<path fill="none" stroke="#000000" d="M454.1813,-219.9468C478.2105,-209.7697 511.1741,-195.8086 538.7245,-184.1402"/>
<polygon fill="#000000" stroke="#000000" points="540.377,-187.2414 548.2202,-180.1185 537.647,-180.7957 540.377,-187.2414"/>
</g>
<!-- [root] provider.kubernetes&#45;&gt;[root] google_container_cluster.gke&#45;cluster -->
<g id="edge32" class="edge">
<title>[root] provider.kubernetes&#45;&gt;[root] google_container_cluster.gke&#45;cluster</title>
<path fill="none" stroke="#000000" d="M396.6826,-218.9064C381.1814,-209.285 360.7679,-196.6146 343.1387,-185.6723"/>
<polygon fill="#000000" stroke="#000000" points="344.5566,-182.433 334.2144,-180.133 340.865,-188.3805 344.5566,-182.433"/>
</g>
<!-- [root] meta.count&#45;boundary (EachMode fixup) -->
<g id="node22" class="node">
<title>[root] meta.count&#45;boundary (EachMode fixup)</title>
<ellipse fill="none" stroke="#000000" cx="446" cy="-594" rx="224.4604" ry="18"/>
<text text-anchor="middle" x="446" y="-590.3" font-family="Times,serif" font-size="14.00" fill="#000000">[root] meta.count&#45;boundary (EachMode fixup)</text>
</g>
<!-- [root] meta.count&#45;boundary (EachMode fixup)&#45;&gt;[root] kubernetes_service.weather&#45;backend&#45;service -->
<g id="edge15" class="edge">
<title>[root] meta.count&#45;boundary (EachMode fixup)&#45;&gt;[root] kubernetes_service.weather&#45;backend&#45;service</title>
<path fill="none" stroke="#000000" d="M632.6106,-583.9879C761.0644,-575.3167 912.4792,-560.8564 935,-540 951.6142,-524.6137 955.0048,-498.4957 954.7426,-478.3467"/>
<polygon fill="#000000" stroke="#000000" points="958.2309,-477.998 954.3028,-468.1583 951.2374,-478.3 958.2309,-477.998"/>
</g>
<!-- [root] meta.count&#45;boundary (EachMode fixup)&#45;&gt;[root] output.cluster&#45;location -->
<g id="edge16" class="edge">
<title>[root] meta.count&#45;boundary (EachMode fixup)&#45;&gt;[root] output.cluster&#45;location</title>
<path fill="none" stroke="#000000" d="M383.3268,-576.6983C358.7431,-568.0847 331.1719,-556.0224 309,-540 285.2689,-522.8509 264.5116,-496.5303 250.8874,-476.7752"/>
<polygon fill="#000000" stroke="#000000" points="253.623,-474.5706 245.1445,-468.2171 247.8104,-478.4711 253.623,-474.5706"/>
</g>
<!-- [root] meta.count&#45;boundary (EachMode fixup)&#45;&gt;[root] output.cluster&#45;name -->
<g id="edge17" class="edge">
<title>[root] meta.count&#45;boundary (EachMode fixup)&#45;&gt;[root] output.cluster&#45;name</title>
<path fill="none" stroke="#000000" d="M359.6157,-577.3306C291.2708,-560.2093 197.2873,-527.4046 135,-468 116.3873,-450.2487 101.883,-424.7113 92.615,-405.3706"/>
<polygon fill="#000000" stroke="#000000" points="95.7367,-403.7818 88.3714,-396.1658 89.3797,-406.7126 95.7367,-403.7818"/>
</g>
<!-- [root] meta.count&#45;boundary (EachMode fixup)&#45;&gt;[root] output.lb_ip -->
<g id="edge18" class="edge">
<title>[root] meta.count&#45;boundary (EachMode fixup)&#45;&gt;[root] output.lb_ip</title>
<path fill="none" stroke="#000000" d="M465.178,-575.8314C474.3588,-567.1337 485.5006,-556.5783 495.4776,-547.1265"/>
<polygon fill="#000000" stroke="#000000" points="497.9757,-549.5811 502.8281,-540.1628 493.1615,-544.4995 497.9757,-549.5811"/>
</g>
<!-- [root] meta.count&#45;boundary (EachMode fixup)&#45;&gt;[root] output.lb_status -->
<g id="edge19" class="edge">
<title>[root] meta.count&#45;boundary (EachMode fixup)&#45;&gt;[root] output.lb_status</title>
<path fill="none" stroke="#000000" d="M430.6071,-575.8314C423.5096,-567.454 414.952,-557.3531 407.176,-548.1749"/>
<polygon fill="#000000" stroke="#000000" points="409.7348,-545.7807 400.6001,-540.4133 404.3939,-550.3056 409.7348,-545.7807"/>
</g>
<!-- [root] provider.google (close) -->
<g id="node23" class="node">
<title>[root] provider.google (close)</title>
<ellipse fill="none" stroke="#000000" cx="733" cy="-234" rx="145.6742" ry="18"/>
<text text-anchor="middle" x="733" y="-230.3" font-family="Times,serif" font-size="14.00" fill="#000000">[root] provider.google (close)</text>
</g>
<!-- [root] provider.google (close)&#45;&gt;[root] data.google_client_config.default -->
<g id="edge24" class="edge">
<title>[root] provider.google (close)&#45;&gt;[root] data.google_client_config.default</title>
<path fill="none" stroke="#000000" d="M698.2629,-216.3868C679.4655,-206.8557 656.0325,-194.9742 635.8678,-184.7498"/>
<polygon fill="#000000" stroke="#000000" points="637.3631,-181.5839 626.8613,-180.1832 634.1974,-187.8272 637.3631,-181.5839"/>
</g>
<!-- [root] provider.google (close)&#45;&gt;[root] google_container_cluster.gke&#45;cluster -->
<g id="edge25" class="edge">
<title>[root] provider.google (close)&#45;&gt;[root] google_container_cluster.gke&#45;cluster</title>
<path fill="none" stroke="#000000" d="M646.6454,-219.4731C582.0444,-208.6056 492.9872,-193.624 421.9954,-181.6815"/>
<polygon fill="#000000" stroke="#000000" points="422.5446,-178.2248 412.1025,-180.0172 421.3833,-185.1278 422.5446,-178.2248"/>
</g>
<!-- [root] provider.kubernetes (close) -->
<g id="node24" class="node">
<title>[root] provider.kubernetes (close)</title>
<ellipse fill="none" stroke="#000000" cx="759" cy="-522" rx="167.0704" ry="18"/>
<text text-anchor="middle" x="759" y="-518.3" font-family="Times,serif" font-size="14.00" fill="#000000">[root] provider.kubernetes (close)</text>
</g>
<!-- [root] provider.kubernetes (close)&#45;&gt;[root] kubernetes_service.weather&#45;backend&#45;service -->
<g id="edge29" class="edge">
<title>[root] provider.kubernetes (close)&#45;&gt;[root] kubernetes_service.weather&#45;backend&#45;service</title>
<path fill="none" stroke="#000000" d="M805.7199,-504.5708C832.3811,-494.6247 866.0234,-482.0742 894.3209,-471.5176"/>
<polygon fill="#000000" stroke="#000000" points="895.5489,-474.7952 903.6948,-468.0206 893.1022,-468.2367 895.5489,-474.7952"/>
</g>
<!-- [root] provider.kubernetes (close)&#45;&gt;[root] kubernetes_service.weather&#45;frontend&#45;service -->
<g id="edge30" class="edge">
<title>[root] provider.kubernetes (close)&#45;&gt;[root] kubernetes_service.weather&#45;frontend&#45;service</title>
<path fill="none" stroke="#000000" d="M703.5453,-504.937C670.5612,-494.7881 628.4542,-481.8321 593.4159,-471.0511"/>
<polygon fill="#000000" stroke="#000000" points="594.3214,-467.6678 583.7343,-468.0721 592.2627,-474.3582 594.3214,-467.6678"/>
</g>
<!-- [root] root -->
<g id="node25" class="node">
<title>[root] root</title>
<ellipse fill="none" stroke="#000000" cx="759" cy="-666" rx="58.4896" ry="18"/>
<text text-anchor="middle" x="759" y="-662.3" font-family="Times,serif" font-size="14.00" fill="#000000">[root] root</text>
</g>
<!-- [root] root&#45;&gt;[root] meta.count&#45;boundary (EachMode fixup) -->
<g id="edge33" class="edge">
<title>[root] root&#45;&gt;[root] meta.count&#45;boundary (EachMode fixup)</title>
<path fill="none" stroke="#000000" d="M712.1407,-655.2209C664.0991,-644.1698 588.356,-626.7464 529.9376,-613.3083"/>
<polygon fill="#000000" stroke="#000000" points="530.5116,-609.849 519.9815,-611.0181 528.9423,-616.6709 530.5116,-609.849"/>
</g>
<!-- [root] root&#45;&gt;[root] provider.google (close) -->
<g id="edge34" class="edge">
<title>[root] root&#45;&gt;[root] provider.google (close)</title>
<path fill="none" stroke="#000000" d="M815.9483,-661.8558C948.0186,-650.6835 1264,-614.3079 1264,-522 1264,-522 1264,-522 1264,-378 1264,-337.1184 1275.3571,-315.3816 1245,-288 1218.2027,-263.8292 1021.4507,-248.6641 879.8425,-240.7616"/>
<polygon fill="#000000" stroke="#000000" points="879.9226,-237.2608 869.7452,-240.2052 879.5374,-244.2502 879.9226,-237.2608"/>
</g>
<!-- [root] root&#45;&gt;[root] provider.kubernetes (close) -->
<g id="edge35" class="edge">
<title>[root] root&#45;&gt;[root] provider.kubernetes (close)</title>
<path fill="none" stroke="#000000" d="M759,-647.7623C759,-623.201 759,-579.2474 759,-550.3541"/>
<polygon fill="#000000" stroke="#000000" points="762.5001,-550.0896 759,-540.0896 755.5001,-550.0897 762.5001,-550.0896"/>
</g>
</g>
</svg>
